<?xml version="1.0" encoding="UTF-8"?>
<svg version="1.1" xmlns="http://www.w3.org/2000/svg" width="512" height="512">
    <path
        d="M0 0 C0.33 0 0.66 0 1 0 C1 9.24 1 18.48 1 28 C4.63 28.66 8.26 29.32 12 30 C23.15465014 33.44780095 35.00821334 38.15635459 44.64453125 44.83203125 C45.42183594 45.21746094 46.19914063 45.60289062 47 46 C50.48582607 44.75561019 52.64495555 42.56340656 55.1875 39.9375 C55.96867188 39.14085937 56.74984375 38.34421875 57.5546875 37.5234375 C58.76511719 36.27433594 58.76511719 36.27433594 60 35 C61.59938344 33.34951805 63.20337647 31.70348736 64.8125 30.0625 C65.87404297 28.96615234 65.87404297 28.96615234 66.95703125 27.84765625 C68.92791466 26.06519381 70.53166251 24.9571689 73 24 C83.32090561 24.77771345 94.12345279 37.60848314 100.625 44.9375 C101.75310943 46.2890774 102.8779175 47.64341487 104 49 C104.72832031 49.81726563 105.45664062 50.63453125 106.20703125 51.4765625 C106.94308594 52.32992187 107.67914063 53.18328125 108.4375 54.0625 C109.11683594 54.83722656 109.79617188 55.61195313 110.49609375 56.41015625 C112.51970536 59.89497313 112.42795368 62.0089416 112 66 C109.98046875 68.81420898 109.98046875 68.81420898 107.1875 71.49609375 C106.69918701 71.97450211 106.21087402 72.45291046 105.70776367 72.94581604 C104.15423743 74.46035831 102.5781404 75.94866559 101 77.4375 C99.93851333 78.46385204 98.87859813 79.49183201 97.8203125 80.52148438 C95.2314653 83.03342412 92.62179499 85.52241641 90 88 C90.38599365 88.69399902 90.7719873 89.38799805 91.16967773 90.10302734 C94.34445023 95.85862387 97.3889988 101.6193089 100.0625 107.625 C100.39830078 108.37845703 100.73410156 109.13191406 101.08007812 109.90820312 C109 128.19546995 109 128.19546995 109 136 C110.47593628 135.97643433 110.47593628 135.97643433 111.98168945 135.95239258 C115.63248508 135.89809022 119.28324501 135.86364915 122.93432617 135.83520508 C124.51446536 135.82011906 126.09456269 135.7996475 127.67456055 135.77368164 C129.94590585 135.73728874 132.21669759 135.72027238 134.48828125 135.70703125 C135.54780754 135.68380547 135.54780754 135.68380547 136.6287384 135.66011047 C139.50314408 135.65912431 141.50452647 135.66552085 143.92724609 137.30102539 C150.34804811 147.46997424 146.36383199 169.85842819 145.1875 181.3125 C145.08248169 182.42214111 145.08248169 182.42214111 144.9753418 183.55419922 C144.66268163 186.18328784 144.36023951 188.43316216 142.92382812 190.69335938 C139.9653343 192.70273234 136.9361832 192.36854991 133.48828125 192.29296875 C132.76005661 192.28872391 132.03183197 192.28447906 131.28153992 192.28010559 C128.95814873 192.26332733 126.6356285 192.22567855 124.3125 192.1875 C122.73634066 192.17245197 121.16016771 192.15876377 119.58398438 192.14648438 C115.72232123 192.11342685 111.86130822 192.06165194 108 192 C107.7431543 193.06726318 107.48630859 194.13452637 107.22167969 195.23413086 C106.87196645 196.66525601 106.52201899 198.09632393 106.171875 199.52734375 C106.00413574 200.22710327 105.83639648 200.92686279 105.66357422 201.64782715 C102.90319835 212.86752391 98.21543976 223.14235785 92.54003906 233.16625977 C90.47443612 236.84587945 90.47443612 236.84587945 90 241 C91.9620083 243.31373157 91.9620083 243.31373157 94.55859375 245.7109375 C95.50154297 246.62617188 96.44449219 247.54140625 97.41601562 248.484375 C98.92506304 249.93133281 100.43729665 251.37480665 101.95239258 252.81542969 C103.41286036 254.20934994 104.86089779 255.61625726 106.30859375 257.0234375 C107.18314209 257.85794434 108.05769043 258.69245117 108.95874023 259.55224609 C111.14381749 262.17245714 111.80092422 263.62416806 112 267 C109.99684622 271.36858006 106.73736811 274.93443442 103.625 278.5625 C102.84358643 279.4740686 102.84358643 279.4740686 102.04638672 280.40405273 C84.94047577 299.98240184 84.94047577 299.98240184 75.125 304.25 C67.55150814 303.64412065 60.63505225 293.75936307 55.5 288.5625 C54.77296875 287.83095703 54.0459375 287.09941406 53.296875 286.34570312 C51.52890501 284.56610176 49.76333622 282.78419082 48 281 C47.07960938 281.50789063 46.15921875 282.01578125 45.2109375 282.5390625 C13.25388624 300 13.25388624 300 0 300 C0.02356567 301.47593628 0.02356567 301.47593628 0.04760742 302.98168945 C0.10190978 306.63248508 0.13635085 310.28324501 0.16479492 313.93432617 C0.17988094 315.51446536 0.2003525 317.09456269 0.22631836 318.67456055 C0.26271126 320.94590585 0.27972762 323.21669759 0.29296875 325.48828125 C0.30845261 326.19463211 0.32393646 326.90098297 0.33988953 327.6287384 C0.34086853 330.48227791 0.32792403 332.50278211 -1.26879883 334.92382812 C-3.27558896 336.17131521 -4.64437329 336.50132772 -6.9921875 336.73046875 C-7.77271484 336.81135742 -8.55324219 336.89224609 -9.35742188 336.97558594 C-10.60362305 337.0804834 -10.60362305 337.0804834 -11.875 337.1875 C-12.73416016 337.26645508 -13.59332031 337.34541016 -14.47851562 337.42675781 C-24.8058812 338.32024899 -34.81110334 338.13532621 -45.125 337.1875 C-45.95580078 337.11756836 -46.78660156 337.04763672 -47.64257812 336.97558594 C-48.42310547 336.89469727 -49.20363281 336.81380859 -50.0078125 336.73046875 C-50.70535645 336.66239014 -51.40290039 336.59431152 -52.12158203 336.52416992 C-54.66823604 335.81352966 -55.53103626 335.22733004 -57 333 C-57.26153069 330.41225229 -57.34958438 328.07100347 -57.29296875 325.48828125 C-57.28872391 324.76005661 -57.28447906 324.03183197 -57.28010559 323.28153992 C-57.26332733 320.95814873 -57.22567855 318.6356285 -57.1875 316.3125 C-57.17245197 314.73634066 -57.15876377 313.16016771 -57.14648438 311.58398438 C-57.11342685 307.72232123 -57.06165194 303.86130822 -57 300 C-58.60089478 299.61473145 -58.60089478 299.61473145 -60.23413086 299.22167969 C-61.66525601 298.87196645 -63.09632393 298.52201899 -64.52734375 298.171875 C-65.57698303 297.92026611 -65.57698303 297.92026611 -66.64782715 297.66357422 C-77.8690304 294.90282771 -88.19137782 290.30283543 -98.07836914 284.36425781 C-100.03563735 283.1941423 -100.03563735 283.1941423 -103 282 C-106.49617406 283.19641944 -108.65199006 285.44385858 -111.1875 288.0625 C-111.96867187 288.85914063 -112.74984375 289.65578125 -113.5546875 290.4765625 C-114.36164063 291.30929687 -115.16859375 292.14203125 -116 293 C-117.59938344 294.65048195 -119.20337647 296.29651264 -120.8125 297.9375 C-121.52019531 298.66839844 -122.22789062 299.39929688 -122.95703125 300.15234375 C-125.59462409 302.53777666 -127.64695566 304 -131.25 304 C-137.64334627 301.67514681 -142.86866737 296.36163274 -148 292 C-147.36167391 289.06698396 -146.41572333 286.59160516 -145.07421875 283.91015625 C-144.69144775 283.1322876 -144.30867676 282.35441895 -143.91430664 281.55297852 C-143.50946045 280.73112061 -143.10461426 279.9092627 -142.6875 279.0625 C-139.05866505 271.53129266 -135.96101862 264.15827085 -134 256 C-133.77699219 255.10152344 -133.55398437 254.20304688 -133.32421875 253.27734375 C-129.37496251 234.17583909 -131.7355139 214.02835035 -139.36328125 196.1640625 C-140.12807098 193.56471581 -139.86197105 192.54731744 -139 190 C-137.72827148 187.96044922 -137.72827148 187.96044922 -136.12109375 185.8046875 C-135.23877075 184.6132312 -135.23877075 184.6132312 -134.33862305 183.39770508 C-133.71125244 182.5652124 -133.08388184 181.73271973 -132.4375 180.875 C-131.80432861 180.02639404 -131.17115723 179.17778809 -130.51879883 178.3034668 C-120.48962696 164.91200256 -120.48962696 164.91200256 -117 161 C-116.67 161 -116.34 161 -116 161 C-115.91363281 162.17433594 -115.82726562 163.34867188 -115.73828125 164.55859375 C-113.68152862 189.28360618 -105.46962108 211.945858 -87.01171875 229.328125 C-71.81731002 241.95571128 -53.01584305 251.12339374 -33 252 C-32.21109375 252.0515625 -31.4221875 252.103125 -30.609375 252.15625 C-8.85522403 252.93783626 12.44206749 244.83398428 29 231 C29.99966797 230.21882813 29.99966797 230.21882813 31.01953125 229.421875 C47.6784897 215.88441764 56.89445895 193.93639976 59.6875 173.11328125 C61.98314474 150.24292057 54.85513287 127.20751247 40.6875 109.1875 C24.00008417 89.99839322 2.64770763 78.55234053 -22.9765625 76.71484375 C-32.3170141 76.40062161 -40.93449246 77.80586889 -50 80 C-50.89589844 80.21269531 -51.79179687 80.42539063 -52.71484375 80.64453125 C-54.48162474 81.07613504 -56.24208069 81.53361324 -58 82 C-57.39192336 78.87951605 -56.39805546 76.85467005 -54.515625 74.3046875 C-53.7412207 73.24507812 -53.7412207 73.24507812 -52.95117188 72.1640625 C-52.38978516 71.40867187 -51.82839844 70.65328125 -51.25 69.875 C-50.05712803 68.24751576 -48.86442431 66.61990819 -47.671875 64.9921875 C-47.06021484 64.16170898 -46.44855469 63.33123047 -45.81835938 62.47558594 C-43.02144589 58.66775797 -40.26150036 54.8335428 -37.5 51 C-36.41686905 49.49985385 -35.33353504 47.9998543 -34.25 46.5 C-33.71375 45.7575 -33.1775 45.015 -32.625 44.25 C-31 42 -29.375 39.75 -27.75 37.5 C-27.21310547 36.7565332 -26.67621094 36.01306641 -26.12304688 35.24707031 C-25.04650953 33.75662963 -23.96968951 32.26639308 -22.89257812 30.77636719 C-20.07783823 26.88179072 -17.26902215 22.98311989 -14.46875 19.078125 C-13.59766602 17.86576172 -13.59766602 17.86576172 -12.70898438 16.62890625 C-11.60428285 15.09116173 -10.50129768 13.5521821 -9.40039062 12.01171875 C-6.41754793 7.8640015 -3.37775545 3.83616511 0 0 Z "
        fill="#2C79BD" transform="translate(358,166)" />
    <path
        d="M0 0 C11.2002064 9.5163133 18.84287112 22.1177248 20.28466797 36.92480469 C21.53769567 56.66110585 14.73150373 70.22307593 2.67578125 85.51171875 C0.10607118 88.78234601 -2.32726889 92.1370699 -4.73046875 95.53125 C-5.13716797 96.10504395 -5.54386719 96.67883789 -5.96289062 97.27001953 C-6.82172781 98.48185336 -7.6804482 99.69376996 -8.5390625 100.90576172 C-11.08374441 104.4821932 -13.65822159 108.03711922 -16.23046875 111.59375 C-17.34245137 113.13150792 -18.45443051 114.66926836 -19.56640625 116.20703125 C-20.12166992 116.9748291 -20.67693359 117.74262695 -21.24902344 118.53369141 C-22.88315174 120.79555829 -24.51434005 123.05951308 -26.14453125 125.32421875 C-32.27294072 133.83367059 -38.45416373 142.30114685 -44.68505859 150.73583984 C-50.82716509 159.05877749 -56.87587558 167.44807215 -62.91796875 175.84375 C-69.6002295 185.12896077 -76.30685882 194.39324699 -83.10546875 203.59375 C-87.92191091 210.11243079 -92.6781981 216.6682328 -97.375 223.2734375 C-105.3664265 234.50890843 -113.4921927 245.64519428 -121.68432617 256.73486328 C-127.2818239 264.31977148 -132.80181731 271.95930308 -138.30908203 279.60986328 C-141.00809009 283.35734792 -143.71340097 287.10027702 -146.41796875 290.84375 C-147.48699085 292.32421031 -148.55600123 293.80467909 -149.625 295.28515625 C-151.93339504 298.48155614 -154.24358926 301.67664787 -156.5546875 304.87109375 C-157.14894531 305.69287109 -157.74320313 306.51464844 -158.35546875 307.36132812 C-159.49694666 308.93977805 -160.63885357 310.51791785 -161.78125 312.09570312 C-162.29429687 312.80533203 -162.80734375 313.51496094 -163.3359375 314.24609375 C-164.01305786 315.18183228 -164.01305786 315.18183228 -164.70385742 316.13647461 C-165.80496429 317.68484387 -166.86405536 319.26287991 -167.91796875 320.84375 C-168.57796875 320.84375 -169.23796875 320.84375 -169.91796875 320.84375 C-171.3984375 319.33984375 -171.3984375 319.33984375 -173.10546875 317.28125 C-184.97095706 303.41376572 -199.29755544 294.0083539 -216.91796875 288.84375 C-216.32872547 285.28853723 -215.38889159 282.41206759 -213.7769928 279.19430542 C-213.32729126 278.28933319 -212.87758972 277.38436096 -212.41426086 276.45196533 C-211.91927597 275.47121033 -211.42429108 274.49045532 -210.91430664 273.47998047 C-210.39377716 272.43687714 -209.87324768 271.3937738 -209.33694458 270.31906128 C-207.6106309 266.86342146 -205.87574424 263.41216325 -204.140625 259.9609375 C-202.93180255 257.54792068 -201.72466902 255.13406008 -200.5174408 252.72024536 C-197.98007478 247.64920704 -195.43821629 242.58044198 -192.89331055 237.51318359 C-189.65684462 231.06888073 -186.42760908 224.62098469 -183.20079899 218.17184258 C-180.39933098 212.57293838 -177.59447358 206.9757334 -174.78909755 201.37878656 C-173.90258118 199.60979535 -173.01652732 197.84057238 -172.13047981 196.07134628 C-166.86497156 185.56231336 -161.59922582 175.05915704 -156.078125 164.68164062 C-149.65692063 152.59321339 -143.62590788 140.30612057 -137.54243279 128.04558182 C-135.33762404 123.60274905 -133.12764733 119.16249903 -130.91664124 114.7227478 C-130.15320777 113.18962336 -129.38977527 111.65649843 -128.62634373 110.12337303 C-128.24465853 109.35688651 -127.86297333 108.59039999 -127.46972191 107.8006866 C-122.3402355 97.4990213 -117.21462163 87.19545445 -112.1003418 76.88623047 C-108.6252128 69.88126326 -105.14282395 62.87995672 -101.6523028 55.88264596 C-99.81519522 52.19913335 -97.98169729 48.51392805 -96.1572094 44.82414627 C-94.44297348 41.35742238 -92.7191413 37.89563467 -90.98830223 34.43717194 C-90.36124813 33.18013168 -89.73754028 31.92141462 -89.11776352 30.66077042 C-79.7288779 11.57826642 -68.97059921 -2.46458303 -48.546875 -10.03515625 C-31.91010442 -14.53243072 -13.6281811 -10.07062378 0 0 Z "
        fill="#2C3D54" transform="translate(372.91796875,19.15625)" />
    <path
        d="M0 0 C15.57840485 13.85555945 25.22553311 32.05349853 26.8125 52.875 C28.2854568 79.65805277 15.74436979 102.69386459 -1.5 122.1875 C-2.99263773 123.79851934 -4.492493 125.40288594 -6 127 C-6.69609375 127.76054687 -7.3921875 128.52109375 -8.109375 129.3046875 C-21.73263102 143.67374221 -40.09904115 152.75566907 -59 158 C-60.00861084 158.29414795 -60.00861084 158.29414795 -61.03759766 158.59423828 C-85.88939914 165.63798179 -113.58432833 164.64152828 -136.40625 152.13671875 C-141.38697611 149.25870484 -145.76778156 145.89067099 -150 142 C-150.75539062 141.32453125 -151.51078125 140.6490625 -152.2890625 139.953125 C-158.60886915 134.00251667 -163.31333907 127.26526555 -168 120 C-168.56976563 119.13890625 -169.13953125 118.2778125 -169.7265625 117.390625 C-171.06341552 114.88095 -171.46026469 113.32120709 -171.5 110.5 C-171.5309375 109.7678125 -171.561875 109.035625 -171.59375 108.28125 C-170.65309455 104.66715274 -168.91980087 103.29172591 -166 101 C-162.96890911 99.76143481 -159.85911331 98.98454048 -156.6875 98.1875 C-139.62434423 93.4732753 -123.65984399 85.67760654 -113 71 C-108.92522323 63.63911292 -107.01337885 57.27272193 -106.7097168 48.87109375 C-106.094978 32.11901861 -103.32234619 16.85757957 -92 4 C-91.4534375 3.3709375 -90.906875 2.741875 -90.34375 2.09375 C-66.92735604 -23.08991898 -24.69700841 -20.90009992 0 0 Z "
        fill="#2C79BD" transform="translate(179,342)" />
    <path
        d="M0 0 C12.66256846 10.83225704 21.07494672 24.6650744 22.69921875 41.44921875 C23.80291587 58.32001758 19.94858168 74.31015045 8.78735352 87.34326172 C-2.29221167 99.55260652 -16.5721519 107.73783827 -33.21484375 108.66796875 C-49.84473424 109.16701555 -65.04990912 105.16845459 -77.80078125 93.94921875 C-79.32048311 92.46918285 -80.82287714 90.97099385 -82.30078125 89.44921875 C-83.14189453 88.63904297 -83.14189453 88.63904297 -84 87.8125 C-94.57194715 76.79658657 -98.82757323 60.8232672 -98.72290039 45.95141602 C-98.09954546 27.65339414 -90.02985524 13.63366969 -76.9921875 1.2578125 C-55.68247955 -17.18260801 -21.98685332 -17.6775089 0 0 Z "
        fill="#2C3D54" transform="translate(368.30078125,281.55078125)" />

</svg>
